<svg width="90" height="90" viewBox="0 0 90 90" fill="none" xmlns="http://www.w3.org/2000/svg">
<path d="M45 81C25.155 81 9 64.845 9 45C9 25.155 25.155 9 45 9C64.845 9 81 25.155 81 45C81 64.845 64.845 81 45 81ZM45 0C39.0905 0 33.2389 1.16396 27.7792 3.42542C22.3196 5.68688 17.3588 9.00156 13.1802 13.1802C4.74106 21.6193 0 33.0653 0 45C0 56.9347 4.74106 68.3807 13.1802 76.8198C17.3588 80.9984 22.3196 84.3131 27.7792 86.5746C33.2389 88.836 39.0905 90 45 90C56.9347 90 68.3807 85.2589 76.8198 76.8198C85.2589 68.3807 90 56.9347 90 45C90 39.0905 88.836 33.2389 86.5746 27.7792C84.3131 22.3196 80.9984 17.3588 76.8198 13.1802C72.6412 9.00156 67.6804 5.68688 62.2208 3.42542C56.7611 1.16396 50.9095 0 45 0ZM49.5 22.5H40.5V40.5H22.5V49.5H40.5V67.5H49.5V49.5H67.5V40.5H49.5V22.5Z" fill="black"/>
</svg>
