<svg width="1455" height="863" viewBox="0 0 1455 863" fill="none" xmlns="http://www.w3.org/2000/svg">
<path d="M663 1146.93L559.696 1223C105.157 877.751 -129 696.349 -129 473.986C-129 403.766 -101.452 339.397 -60.1304 286.732C-60.1304 298.435 -60.1304 310.139 -60.1304 321.842C-60.1304 596.871 208.461 801.679 663 1146.93ZM773.191 907.01C1096.88 655.388 1317.26 491.541 1324.15 321.842C1324.15 204.809 1220.84 117.033 1083.1 117.033C972.913 117.033 869.609 175.55 835.174 257.474L704.322 257.474C663 175.55 559.696 117.033 456.391 117.033C318.652 117.033 215.348 204.809 215.348 321.842C215.348 491.541 428.843 655.388 759.417 907.01L766.304 912.861L773.191 907.01ZM1076.22 0C1289.71 0 1455 140.44 1455 321.842C1455 538.354 1220.84 719.756 766.304 1070.86C311.765 725.608 77.6087 544.206 77.6087 321.842C77.6087 140.44 242.896 0 456.391 0C573.47 0 690.548 46.8134 766.304 122.885C842.061 46.8134 959.139 0 1076.22 0Z" fill="#72D0EE"/>
</svg>
