<svg width="39" height="38" viewBox="0 0 39 38" fill="none" xmlns="http://www.w3.org/2000/svg">
<path d="M19.2992 35.4446L16.8342 37.7956C5.98854 27.126 0.401367 21.52 0.401367 14.648C0.401367 12.478 1.05868 10.4887 2.04465 8.86116C2.04465 9.22284 2.04465 9.58452 2.04465 9.9462C2.04465 18.4457 8.45347 24.7751 19.2992 35.4446ZM21.9284 28.0302C29.6518 20.2541 34.9104 15.1906 35.0747 9.9462C35.0747 6.3294 32.6098 3.6168 29.3232 3.6168C26.6939 3.6168 24.229 5.4252 23.4074 7.95696L20.2851 7.95696C19.2992 5.4252 16.8342 3.6168 14.3693 3.6168C11.0827 3.6168 8.61779 6.3294 8.61779 9.9462C8.61779 15.1906 13.712 20.2541 21.5998 28.0302L21.7641 28.211L21.9284 28.0302ZM29.1589 0C34.253 0 38.1969 4.34016 38.1969 9.9462C38.1969 16.6373 32.6098 22.2433 21.7641 33.0937C10.9184 22.4242 5.33122 16.8181 5.33122 9.9462C5.33122 4.34016 9.27511 0 14.3693 0C17.1629 0 19.9565 1.44672 21.7641 3.79764C23.5717 1.44672 26.3653 0 29.1589 0Z" fill="#31CCFD"/>
</svg>
