<svg width="55" height="55" viewBox="0 0 55 55" fill="none" xmlns="http://www.w3.org/2000/svg">
<path d="M33.8556 38.4694L41.7694 30.5556L12.2222 30.5556L12.2222 24.4444L41.7694 24.4444L33.8556 16.5306L38.1944 12.2222L53.4722 27.5L38.1944 42.7778L33.8556 38.4694ZM48.8889 0C50.5097 0 52.064 0.643847 53.2101 1.7899C54.3562 2.93596 55 4.49034 55 6.11111L55 20.3806L48.8889 14.2694L48.8889 6.11111L6.11111 6.11111L6.11111 48.8889L48.8889 48.8889L48.8889 40.7306L55 34.6194L55 48.8889C55 50.5097 54.3562 52.064 53.2101 53.2101C52.064 54.3562 50.5097 55 48.8889 55L6.11111 55C2.71944 55 0 52.25 0 48.8889L0 6.11111C0 2.71944 2.71944 0 6.11111 0L48.8889 0Z" fill="#A7DEEF"/>
</svg>
