<svg width="39" height="38" viewBox="0 0 39 38" fill="none" xmlns="http://www.w3.org/2000/svg">
<path d="M17.8107 0C16.8083 0 15.847 0.37924 15.1382 1.05429C14.4294 1.72934 14.0312 2.64491 14.0312 3.59958C14.0179 3.77333 14.0179 3.94777 14.0312 4.12152C8.58862 5.65134 4.58229 10.4748 4.58229 16.1981L4.58229 26.9968L0.802734 30.5964L0.802734 32.3962L34.8187 32.3962L34.8187 30.5964L31.0392 26.9968L31.0392 16.1981C31.0392 10.4748 27.0329 5.65134 21.5903 4.12152C21.6036 3.94777 21.6036 3.77333 21.5903 3.59958C21.5903 2.64491 21.1921 1.72934 20.4833 1.05429C19.7745 0.37924 18.8131 0 17.8107 0ZM17.8107 7.19916C20.3167 7.19916 22.7201 8.14726 24.4921 9.83488C26.2641 11.5225 27.2596 13.8114 27.2596 16.1981L27.2596 28.7966L8.36185 28.7966L8.36185 16.1981C8.36185 13.8114 9.35735 11.5225 11.1294 9.83488C12.9014 8.14726 15.3047 7.19916 17.8107 7.19916ZM34.8187 8.99894L34.8187 19.7977L38.5983 19.7977L38.5983 8.99894L34.8187 8.99894ZM34.8187 23.3973V26.9968L38.5983 26.9968V23.3973L34.8187 23.3973ZM14.0312 34.196C14.0312 35.1507 14.4294 36.0662 15.1382 36.7413C15.847 37.4163 16.8083 37.7956 17.8107 37.7956C18.8131 37.7956 19.7745 37.4163 20.4833 36.7413C21.1921 36.0662 21.5903 35.1507 21.5903 34.196L14.0312 34.196Z" fill="#31CCFD"/>
</svg>
