<svg width="55" height="55" viewBox="0 0 55 55" fill="none" xmlns="http://www.w3.org/2000/svg">
<path d="M27.5 0C23.8886 0 20.3127 0.711309 16.9762 2.09331C13.6398 3.47532 10.6082 5.50095 8.05456 8.05456C2.89731 13.2118 0 20.2065 0 27.5C0 34.7935 2.89731 41.7882 8.05456 46.9454C10.6082 49.499 13.6398 51.5247 16.9762 52.9067C20.3127 54.2887 23.8886 55 27.5 55C34.7935 55 41.7882 52.1027 46.9454 46.9454C52.1027 41.7882 55 34.7935 55 27.5C55 23.8886 54.2887 20.3127 52.9067 16.9762C51.5247 13.6398 49.499 10.6082 46.9454 8.05456C44.3918 5.50095 41.3602 3.47532 38.0238 2.09331C34.6873 0.711309 31.1114 0 27.5 0ZM13.9425 44.77C15.125 42.295 22.33 39.875 27.5 39.875C32.67 39.875 39.875 42.295 41.0575 44.77C37.3175 47.74 32.615 49.5 27.5 49.5C22.385 49.5 17.6825 47.74 13.9425 44.77ZM44.99 40.7825C41.0575 35.9975 31.515 34.375 27.5 34.375C23.485 34.375 13.9425 35.9975 10.01 40.7825C7.205 37.125 5.5 32.505 5.5 27.5C5.5 15.3725 15.3725 5.5 27.5 5.5C39.6275 5.5 49.5 15.3725 49.5 27.5C49.5 32.505 47.795 37.125 44.99 40.7825ZM27.5 11C22.165 11 17.875 15.29 17.875 20.625C17.875 25.96 22.165 30.25 27.5 30.25C32.835 30.25 37.125 25.96 37.125 20.625C37.125 15.29 32.835 11 27.5 11ZM27.5 24.75C26.406 24.75 25.3568 24.3154 24.5832 23.5418C23.8096 22.7682 23.375 21.719 23.375 20.625C23.375 19.531 23.8096 18.4818 24.5832 17.7082C25.3568 16.9346 26.406 16.5 27.5 16.5C28.594 16.5 29.6432 16.9346 30.4168 17.7082C31.1904 18.4818 31.625 19.531 31.625 20.625C31.625 21.719 31.1904 22.7682 30.4168 23.5418C29.6432 24.3154 28.594 24.75 27.5 24.75Z" fill="black"/>
</svg>
